<svg xmlns="http://www.w3.org/2000/svg" viewBox="0 0 192 24"
     fill="none" stroke="#6c63ff" stroke-width="2" stroke-linecap="round" stroke-linejoin="round">

  <!-- col 0 · home -->
  <g transform="translate(0,0)">
    <path d="M3 9l9-7 9 7v11a2 2 0 0 1-2 2H5a2 2 0 0 1-2-2z"/>
    <polyline points="9 22 9 12 15 12 15 22"/>
  </g>

  <!-- col 1 · user / about -->
  <g transform="translate(24,0)">
    <path d="M20 21v-2a4 4 0 0 0-4-4H8a4 4 0 0 0-4 4v2"/>
    <circle cx="12" cy="7" r="4"/>
  </g>

  <!-- col 2 · code / skills -->
  <g transform="translate(48,0)">
    <polyline points="16 18 22 12 16 6"/>
    <polyline points="8 6 2 12 8 18"/>
  </g>

  <!-- col 3 · layers / projects -->
  <g transform="translate(72,0)">
    <polygon points="12 2 2 7 12 12 22 7 12 2"/>
    <polyline points="2 17 12 22 22 17"/>
    <polyline points="2 12 12 17 22 12"/>
  </g>

  <!-- col 4 · briefcase / experience -->
  <g transform="translate(96,0)">
    <rect x="2" y="7" width="20" height="14" rx="2" ry="2"/>
    <path d="M16 21V5a2 2 0 0 0-2-2h-4a2 2 0 0 0-2 2v16"/>
  </g>

  <!-- col 5 · star / testimonials -->
  <g transform="translate(120,0)">
    <polygon points="12 2 15.09 8.26 22 9.27 17 14.14 18.18 21.02 12 17.77 5.82 21.02 7 14.14 2 9.27 8.91 8.26 12 2"/>
  </g>

  <!-- col 6 · book / blog -->
  <g transform="translate(144,0)">
    <path d="M2 3h6a4 4 0 0 1 4 4v14a3 3 0 0 0-3-3H2z"/>
    <path d="M22 3h-6a4 4 0 0 0-4 4v14a3 3 0 0 1 3-3h7z"/>
  </g>

  <!-- col 7 · mail / contact -->
  <g transform="translate(168,0)">
    <path d="M4 4h16c1.1 0 2 .9 2 2v12c0 1.1-.9 2-2 2H4c-1.1 0-2-.9-2-2V6c0-1.1.9-2 2-2z"/>
    <polyline points="22,6 12,13 2,6"/>
  </g>

</svg>
