<svg xmlns="http://www.w3.org/2000/svg" viewBox="0 0 672 24"
     fill="none" stroke="#6c63ff" stroke-width="2" stroke-linecap="round" stroke-linejoin="round">

  <!-- col 0 · sun -->
  <g transform="translate(0,0)">
    <circle cx="12" cy="12" r="5"/>
    <line x1="12" y1="1" x2="12" y2="3"/>
    <line x1="12" y1="21" x2="12" y2="23"/>
    <line x1="4.22" y1="4.22" x2="5.64" y2="5.64"/>
    <line x1="18.36" y1="18.36" x2="19.78" y2="19.78"/>
    <line x1="1" y1="12" x2="3" y2="12"/>
    <line x1="21" y1="12" x2="23" y2="12"/>
    <line x1="4.22" y1="19.78" x2="5.64" y2="18.36"/>
    <line x1="18.36" y1="5.64" x2="19.78" y2="4.22"/>
  </g>

  <!-- col 1 · moon -->
  <g transform="translate(24,0)">
    <path d="M21 12.79A9 9 0 1 1 11.21 3 7 7 0 0 0 21 12.79z"/>
  </g>

  <!-- col 2 · github (filled) -->
  <g transform="translate(48,0)" fill="#6c63ff" stroke="none">
    <path d="M12 0C5.37 0 0 5.37 0 12c0 5.31 3.435 9.795 8.205 11.385.6.105.825-.255.825-.57 0-.285-.015-1.23-.015-2.235-3.015.555-3.795-.735-4.035-1.41-.135-.345-.72-1.41-1.23-1.695-.42-.225-1.02-.78-.015-.795.945-.015 1.62.87 1.845 1.23 1.08 1.815 2.805 1.305 3.495.99.105-.78.42-1.305.765-1.605-2.67-.3-5.46-1.335-5.46-5.925 0-1.305.465-2.385 1.23-3.225-.12-.3-.54-1.53.12-3.18 0 0 1.005-.315 3.3 1.23.96-.27 1.98-.405 3-.405s2.04.135 3 .405c2.295-1.56 3.3-1.23 3.3-1.23.66 1.65.24 2.88.12 3.18.765.84 1.23 1.905 1.23 3.225 0 4.605-2.805 5.625-5.475 5.925.435.375.81 1.095.81 2.22 0 1.605-.015 2.895-.015 3.3 0 .315.225.69.825.57A12.02 12.02 0 0 0 24 12c0-6.63-5.37-12-12-12z"/>
  </g>

  <!-- col 3 · linkedin (filled) -->
  <g transform="translate(72,0)" fill="#6c63ff" stroke="none">
    <path d="M20.447 20.452h-3.554v-5.569c0-1.328-.027-3.037-1.852-3.037-1.853 0-2.136 1.445-2.136 2.939v5.667H9.351V9h3.414v1.561h.046c.477-.9 1.637-1.85 3.37-1.85 3.601 0 4.267 2.37 4.267 5.455v6.286zM5.337 7.433a2.062 2.062 0 0 1-2.063-2.065 2.064 2.064 0 1 1 2.063 2.065zm1.782 13.019H3.555V9h3.564v11.452zM22.225 0H1.771C.792 0 0 .774 0 1.729v20.542C0 23.227.792 24 1.771 24h20.451C23.2 24 24 23.227 24 22.271V1.729C24 .774 23.2 0 22.222 0h.003z"/>
  </g>

  <!-- col 4 · twitter / X (filled) -->
  <g transform="translate(96,0)" fill="#6c63ff" stroke="none">
    <path d="M18.244 2.25h3.308l-7.227 8.26 8.502 11.24H16.17l-5.214-6.817L4.99 21.75H1.68l7.73-8.835L1.254 2.25H8.08l4.713 6.231zm-1.161 17.52h1.833L7.084 4.126H5.117z"/>
  </g>

  <!-- col 5 · arrow-right -->
  <g transform="translate(120,0)">
    <line x1="5" y1="12" x2="19" y2="12"/>
    <polyline points="12 5 19 12 12 19"/>
  </g>

  <!-- col 6 · arrow-left -->
  <g transform="translate(144,0)">
    <line x1="19" y1="12" x2="5" y2="12"/>
    <polyline points="12 19 5 12 12 5"/>
  </g>

  <!-- col 7 · download -->
  <g transform="translate(168,0)">
    <path d="M21 15v4a2 2 0 0 1-2 2H5a2 2 0 0 1-2-2v-4"/>
    <polyline points="7 10 12 15 17 10"/>
    <line x1="12" y1="15" x2="12" y2="3"/>
  </g>

  <!-- col 8 · map-pin -->
  <g transform="translate(192,0)">
    <path d="M21 10c0 7-9 13-9 13s-9-6-9-13a9 9 0 0 1 18 0z"/>
    <circle cx="12" cy="10" r="3"/>
  </g>

  <!-- col 9 · send -->
  <g transform="translate(216,0)">
    <line x1="22" y1="2" x2="11" y2="13"/>
    <polygon points="22 2 15 22 11 13 2 9 22 2"/>
  </g>

  <!-- col 10 · check -->
  <g transform="translate(240,0)">
    <polyline points="20 6 9 17 4 12"/>
  </g>

  <!-- col 11 · calendar -->
  <g transform="translate(264,0)">
    <rect x="3" y="4" width="18" height="18" rx="2" ry="2"/>
    <line x1="16" y1="2" x2="16" y2="6"/>
    <line x1="8" y1="2" x2="8" y2="6"/>
    <line x1="3" y1="10" x2="21" y2="10"/>
  </g>

  <!-- col 12 · clock -->
  <g transform="translate(288,0)">
    <circle cx="12" cy="12" r="10"/>
    <polyline points="12 6 12 12 16 14"/>
  </g>

  <!-- col 13 · quote (filled) -->
  <g transform="translate(312,0)" fill="#6c63ff" stroke="none">
    <path d="M14.017 21v-7.391c0-5.704 3.731-9.57 8.983-10.609l.995 2.151c-2.432.917-3.995 3.638-3.995 5.849h4v10H14.017zM0 21v-7.391c0-5.704 3.731-9.57 8.983-10.609l.995 2.151C7.546 6.068 5.983 8.789 5.983 11h4v10H0z"/>
  </g>

  <!-- col 14 · chevron-left -->
  <g transform="translate(336,0)">
    <polyline points="15 18 9 12 15 6"/>
  </g>

  <!-- col 15 · chevron-right -->
  <g transform="translate(360,0)">
    <polyline points="9 18 15 12 9 6"/>
  </g>

  <!-- col 16 · external-link -->
  <g transform="translate(384,0)">
    <path d="M18 13v6a2 2 0 0 1-2 2H5a2 2 0 0 1-2-2V8a2 2 0 0 1 2-2h6"/>
    <polyline points="15 3 21 3 21 9"/>
    <line x1="10" y1="14" x2="21" y2="3"/>
  </g>

  <!-- col 17 · star (filled) — used in testimonials rating -->
  <g transform="translate(408,0)" fill="#6c63ff" stroke="none">
    <polygon points="12 2 15.09 8.26 22 9.27 17 14.14 18.18 21.02 12 17.77 5.82 21.02 7 14.14 2 9.27 8.91 8.26 12 2"/>
  </g>

  <!-- col 18 · lightbulb -->
  <g transform="translate(432,0)">
    <path d="M9.663 17h4.673M12 3v1m6.364 1.636l-.707.707M21 12h-1M4 12H3m3.343-5.657l-.707-.707m2.828 9.9a5 5 0 1 1 7.072 0l-.548.547A3.374 3.374 0 0 0 14 18.469V19a2 2 0 1 1-4 0v-.531c0-.895-.356-1.754-.988-2.386l-.548-.547z"/>
  </g>

  <!-- col 19 · smartphone -->
  <g transform="translate(456,0)">
    <path d="M12 18h.01M8 21h8a2 2 0 0 0 2-2V5a2 2 0 0 0-2-2H8a2 2 0 0 0-2 2v14a2 2 0 0 0 2 2z"/>
  </g>

  <!-- col 20 · layout -->
  <g transform="translate(480,0)">
    <rect x="3" y="3" width="18" height="4" rx="1"/>
    <rect x="3" y="10" width="9" height="11" rx="1"/>
    <rect x="14" y="10" width="7" height="11" rx="1"/>
  </g>

  <!-- col 21 · zap -->
  <g transform="translate(504,0)">
    <polygon points="13 2 3 14 12 14 11 22 21 10 12 10 13 2"/>
  </g>

  <!-- col 22 · terminal -->
  <g transform="translate(528,0)">
    <polyline points="4 17 10 11 4 5"/>
    <line x1="12" y1="19" x2="20" y2="19"/>
  </g>

  <!-- col 23 · package -->
  <g transform="translate(552,0)">
    <line x1="16.5" y1="9.4" x2="7.5" y2="4.21"/>
    <path d="M21 16V8a2 2 0 0 0-1-1.73l-7-4a2 2 0 0 0-2 0l-7 4A2 2 0 0 0 3 8v8a2 2 0 0 0 1 1.73l7 4a2 2 0 0 0 2 0l7-4A2 2 0 0 0 21 16z"/>
    <polyline points="3.27 6.96 12 12.01 20.73 6.96"/>
    <line x1="12" y1="22.08" x2="12" y2="12"/>
  </g>

  <!-- col 24 · settings -->
  <g transform="translate(576,0)">
    <circle cx="12" cy="12" r="3"/>
    <path d="M19.4 15a1.65 1.65 0 0 0 .33 1.82l.06.06a2 2 0 0 1-2.83 2.83l-.06-.06a1.65 1.65 0 0 0-1.82-.33 1.65 1.65 0 0 0-1 1.51V21a2 2 0 0 1-4 0v-.09A1.65 1.65 0 0 0 9 19.4a1.65 1.65 0 0 0-1.82.33l-.06.06a2 2 0 0 1-2.83-2.83l.06-.06A1.65 1.65 0 0 0 4.68 15a1.65 1.65 0 0 0-1.51-1H3a2 2 0 0 1 0-4h.09A1.65 1.65 0 0 0 4.6 9a1.65 1.65 0 0 0-.33-1.82l-.06-.06a2 2 0 0 1 2.83-2.83l.06.06A1.65 1.65 0 0 0 9 4.68a1.65 1.65 0 0 0 1-1.51V3a2 2 0 0 1 4 0v.09a1.65 1.65 0 0 0 1 1.51 1.65 1.65 0 0 0 1.82-.33l.06-.06a2 2 0 0 1 2.83 2.83l-.06.06A1.65 1.65 0 0 0 19.4 9a1.65 1.65 0 0 0 1.51 1H21a2 2 0 0 1 0 4h-.09a1.65 1.65 0 0 0-1.51 1z"/>
  </g>

  <!-- col 25 · search -->
  <g transform="translate(600,0)">
    <circle cx="11" cy="11" r="8"/>
    <line x1="21" y1="21" x2="16.65" y2="16.65"/>
  </g>

  <!-- col 26 · image (window / project placeholder) -->
  <g transform="translate(624,0)">
    <rect x="3" y="3" width="18" height="18" rx="2" ry="2"/>
    <line x1="3" y1="9" x2="21" y2="9"/>
    <line x1="9" y1="21" x2="9" y2="9"/>
  </g>

  <!-- col 27 · book (used in blog-preview btn) -->
  <g transform="translate(648,0)">
    <path d="M2 3h6a4 4 0 0 1 4 4v14a3 3 0 0 0-3-3H2z"/>
    <path d="M22 3h-6a4 4 0 0 0-4 4v14a3 3 0 0 1 3-3h7z"/>
  </g>

</svg>
